<svg width="100px" height="69px" viewBox="0 0 100 69" version="1.1" xmlns="http://www.w3.org/2000/svg" xmlns:xlink="http://www.w3.org/1999/xlink">
  <!-- Generator: Sketch 47.1 (45422) - http://www.bohemiancoding.com/sketch -->
  <desc>Created with Sketch.</desc>
  <defs></defs>
  <g id="Page-1" stroke="none" stroke-width="1" fill="none" fill-rule="evenodd">
    <g id="Desktop-A" transform="translate(-529.000000, -907.000000)">
      <g id="Group-2" transform="translate(529.000000, 907.000000)">
        <path d="M50.5598212,68.5186985 C78.0719259,68.0620209 100.303589,52.4940875 99.9968831,33.4347271 C99.6726389,14.367394 76.9581134,-0.444126039 49.4366086,0.0101858771 C21.9150223,0.467586052 -0.309093903,16.0348487 0.00323224163,35.096867 C0.318753889,54.1594002 23.0360504,68.9752988 50.5598212,68.5186985 Z" id="Fill-2" fill="#BF1E2D" fill-rule="nonzero"></path>
        <g id="Group" transform="translate(16.319444, 17.481884)" fill="#FFFFFF">
          <path d="M11.5011934,5.23807535 L11.5011934,4.22661265 C11.5011934,1.71740711 9.72404516,0.0446034126 6.5367685,0.0446034126 C3.44607599,0.0446034126 1.24395757,1.91191916 1.24395757,4.67399038 L1.24395757,9.06996288 C1.24395757,11.8320341 3.36880867,13.7188011 6.57540216,13.7188011 C9.4149759,13.7188011 11.4818765,12.1627046 11.4818765,9.67295026 L11.4818765,8.50587791 L7.88894648,8.50587791 L7.88894648,9.45898699 C7.88894648,10.1786816 7.44465943,10.6066081 6.63335264,10.6066081 C5.93794683,10.6066081 5.35844198,10.217584 5.35844198,9.40063338 L5.35844198,4.44057591 C5.35844198,3.52636924 5.82204586,3.15679633 6.63335264,3.15679633 C7.44465943,3.15679633 7.9082633,3.52636924 7.9082633,4.44057591 L7.9082633,5.23807535 L11.5011934,5.23807535 L11.5011934,5.23807535 L11.5011934,5.23807535 Z M23.5529384,9.08941408 L23.5529384,4.65453917 C23.5529384,1.83411434 21.2928695,0.0446034126 18.1828602,0.0446034126 C15.053534,0.0446034126 12.7934651,1.83411434 12.7934651,4.65453917 L12.7934651,9.08941408 C12.7934651,11.8903877 15.053534,13.7188011 18.1828602,13.7188011 C21.2928695,13.7188011 23.5529384,11.8903877 23.5529384,9.08941408 L23.5529384,9.08941408 L23.5529384,9.08941408 L23.5529384,9.08941408 Z M19.438454,9.34227976 C19.438454,10.0619744 19.0134838,10.6066081 18.1828602,10.6066081 C17.3329198,10.6066081 16.9079495,10.0619744 16.9079495,9.34227976 L16.9079495,4.44057591 C16.9079495,3.70143009 17.3329198,3.15679633 18.1828602,3.15679633 C19.0134838,3.15679633 19.438454,3.70143009 19.438454,4.44057591 L19.438454,9.34227976 L19.438454,9.34227976 L19.438454,9.34227976 Z M35.7012677,8.71984117 L35.7012677,5.25752655 C35.7012677,2.3787481 34.2331887,0.394725116 30.5629914,0.394725116 L25.096329,0.394725116 L25.096329,13.3492281 L30.5629914,13.3492281 C34.2331887,13.3492281 35.7012677,11.5986196 35.7012677,8.71984117 L35.7012677,8.71984117 L35.7012677,8.71984117 L35.7012677,8.71984117 Z M31.6447337,8.8170972 C31.6447337,9.92581593 31.1811299,10.2759376 30.2346053,10.2759376 L29.1335461,10.2759376 L29.1335461,3.44856442 L30.2346053,3.44856442 C31.1811299,3.44856442 31.6447337,3.79868612 31.6447337,4.90740485 L31.6447337,8.8170972 L31.6447337,8.8170972 L31.6447337,8.8170972 Z M41.2818753,13.3492281 L41.2818753,0.394725116 L37.2446582,0.394725116 L37.2446582,13.3492281 L41.2818753,13.3492281 L41.2818753,13.3492281 L41.2818753,13.3492281 Z M53.7972243,13.3492281 L53.7972243,0.394725116 L50.1656606,0.394725116 L50.1656606,6.38569649 L49.3157201,4.98520967 L46.5340969,0.394725116 L43.0763846,0.394725116 L43.0763846,13.3492281 L46.7272651,13.3492281 L46.7272651,7.4360616 L47.6158392,8.85599961 L50.455413,13.3492281 L53.7972243,13.3492281 L53.7972243,13.3492281 L53.7972243,13.3492281 Z M62.1208215,4.47947832 L62.1208215,5.27697776 L65.7523852,5.27697776 L65.7523852,4.26551506 C65.7523852,1.75630952 63.8013856,0.0446034126 60.6913762,0.0446034126 C57.677951,0.0446034126 55.3406148,1.71740711 55.3406148,4.63508797 L55.3406148,9.1283165 C55.3406148,11.5986196 57.1757135,13.7188011 60.3050397,13.7188011 C61.7924354,13.7188011 63.1252966,12.9991064 63.8013856,11.8125829 L64.2843063,13.3492281 L65.7523852,13.3492281 L65.7523852,6.83307422 L61.0004455,6.83307422 L61.0004455,8.797646 L62.2560393,8.797646 L62.2560393,9.43953579 C62.2560393,10.1592304 61.6765345,10.6066081 60.8652277,10.6066081 C60.1698219,10.6066081 59.4550992,10.1981328 59.4550992,9.38118217 L59.4550992,4.47947832 C59.4550992,3.56527165 59.9766536,3.15679633 60.7879604,3.15679633 C61.5992672,3.15679633 62.1208215,3.56527165 62.1208215,4.47947832 L62.1208215,4.47947832 Z M10.2069659,28.3275528 C10.2069659,24.3595068 4.16079863,24.4956653 4.16079863,22.8228616 C4.16079863,22.1615206 4.54713519,21.8113989 5.28117467,21.8113989 C6.18906559,21.8113989 6.59471898,22.3365814 6.59471898,23.1146297 L6.59471898,23.5814586 L10.0910649,23.5814586 L10.0910649,22.8812152 C10.0910649,20.4498145 8.33323352,18.8353644 5.26185784,18.8353644 C2.19048215,18.8353644 0.3747003,20.6443265 0.3747003,22.9201176 C0.3747003,26.9076148 6.38223387,26.82981 6.38223387,28.5415161 C6.38223387,29.1834059 6.07316462,29.5335276 5.06868956,29.5335276 C4.16079863,29.5335276 3.63924427,29.0861498 3.63924427,28.2108456 L3.63924427,27.7245654 L0.142898361,27.7245654 L0.142898361,28.3081016 C0.142898361,30.9340144 1.90072973,32.509562 5.28117467,32.509562 C8.58435229,32.509562 10.2069659,30.5838927 10.2069659,28.3275528 L10.2069659,28.3275528 Z M20.9835872,22.3754838 L20.9835872,19.1854861 L10.7456683,19.1854861 L10.7456683,22.3754838 L13.8363608,22.3754838 L13.8363608,32.1399891 L17.8735779,32.1399891 L17.8735779,22.3754838 L20.9835872,22.3754838 L20.9835872,22.3754838 Z M32.5364426,27.8801751 L32.5364426,23.4453002 C32.5364426,20.6248753 30.2763737,18.8353644 27.1663643,18.8353644 C24.0370381,18.8353644 21.7769692,20.6248753 21.7769692,23.4453002 L21.7769692,27.8801751 C21.7769692,30.6811487 24.0370381,32.509562 27.1663643,32.509562 C30.2763737,32.509562 32.5364426,30.6811487 32.5364426,27.8801751 L32.5364426,27.8801751 Z M44.8006728,32.1399891 L44.8006728,19.1854861 L41.1691091,19.1854861 L41.1691091,25.1764575 L40.3191686,23.7759707 L37.5375453,19.1854861 L34.0798331,19.1854861 L34.0798331,32.1399891 L37.7307136,32.1399891 L37.7307136,26.2268226 L38.6192877,27.6467606 L41.4588615,32.1399891 L44.8006728,32.1399891 L44.8006728,32.1399891 Z M55.7706755,32.1399891 L55.7706755,28.8332842 L50.6323992,28.8332842 L50.6323992,26.6547491 L53.9935273,26.6547491 L53.9935273,24.3984092 L50.6323992,24.3984092 L50.6323992,22.2782278 L55.7706755,22.2782278 L55.7706755,19.1854861 L46.5951821,19.1854861 L46.5951821,32.1399891 L55.7706755,32.1399891 L55.7706755,32.1399891 Z M66.7247801,28.3275528 C66.7247801,24.3595068 60.6786129,24.4956653 60.6786129,22.8228616 C60.6786129,22.1615206 61.0649495,21.8113989 61.7989889,21.8113989 C62.7068799,21.8113989 63.1125333,22.3365814 63.1125333,23.1146297 L63.1125333,23.5814586 L66.6088792,23.5814586 L66.6088792,22.8812152 C66.6088792,20.4498145 64.8510478,18.8353644 61.7796721,18.8353644 C58.7082964,18.8353644 56.8925146,20.6443265 56.8925146,22.9201176 C56.8925146,26.9076148 62.9000482,26.82981 62.9000482,28.5415161 C62.9000482,29.1834059 62.5909789,29.5335276 61.5865038,29.5335276 C60.6786129,29.5335276 60.1570585,29.0861498 60.1570585,28.2108456 L60.1570585,27.7245654 L56.6607126,27.7245654 L56.6607126,28.3081016 C56.6607126,30.9340144 58.418544,32.509562 61.7989889,32.509562 C65.1021666,32.509562 66.7247801,30.5838927 66.7247801,28.3275528 L66.7247801,28.3275528 Z M28.4219581,28.1330407 C28.4219581,28.8527354 27.9969879,29.3973691 27.1663643,29.3973691 C26.3164239,29.3973691 25.8914537,28.8527354 25.8914537,28.1330407 L25.8914537,23.2313369 C25.8914537,22.4921911 26.3164239,21.9475573 27.1663643,21.9475573 C27.9969879,21.9475573 28.4219581,22.4921911 28.4219581,23.2313369 L28.4219581,28.1330407 L28.4219581,28.1330407 Z" id="Combined-Shape"></path>
        </g>
      </g>
    </g>
  </g>
</svg>
