<svg width="289px" height="196px" viewBox="0 0 289 196" version="1.1" xmlns="http://www.w3.org/2000/svg" xmlns:xlink="http://www.w3.org/1999/xlink">
  <!-- Generator: Sketch 47.1 (45422) - http://www.bohemiancoding.com/sketch -->
  <desc>Created with Sketch.</desc>
  <defs></defs>
  <g id="Page-1" stroke="none" stroke-width="1" fill="none" fill-rule="evenodd">
    <g id="Desktop-A" transform="translate(-666.000000, -741.000000)" fill="#000000">
      <g id="Group-2" transform="translate(666.000000, 741.000000)">
        <path d="M80.1234369,63.9814386 L80.1234369,61.0885504 C80.1234369,53.9119624 75.00525,49.1275704 65.8258933,49.1275704 C56.9246988,49.1275704 50.5825978,54.468287 50.5825978,62.3680971 L50.5825978,74.9410343 C50.5825978,82.8408443 56.702169,88.2371935 65.9371582,88.2371935 C74.1151306,88.2371935 80.0678044,83.7865962 80.0678044,76.6656407 L80.0678044,73.3276928 L69.7201658,73.3276928 L69.7201658,76.0536836 C69.7201658,78.1120848 68.4406191,79.335999 66.1040556,79.335999 C64.1012869,79.335999 62.4323129,78.2233497 62.4323129,75.8867862 L62.4323129,61.7005075 C62.4323129,59.0857817 63.7674921,58.0287648 66.1040556,58.0287648 C68.4406191,58.0287648 69.7757983,59.0857817 69.7757983,61.7005075 L69.7757983,63.9814386 L80.1234369,63.9814386 Z M114.832463,74.9966667 L114.832463,62.3124647 C114.832463,54.2457572 108.323464,49.1275704 99.3666374,49.1275704 C90.354178,49.1275704 83.8451796,54.2457572 83.8451796,62.3124647 L83.8451796,74.9966667 C83.8451796,83.0077417 90.354178,88.2371935 99.3666374,88.2371935 C108.323464,88.2371935 114.832463,83.0077417 114.832463,74.9966667 L114.832463,74.9966667 Z M102.982748,75.7198888 C102.982748,77.77829 101.758833,79.335999 99.3666374,79.335999 C96.9188089,79.335999 95.6948947,77.77829 95.6948947,75.7198888 L95.6948947,61.7005075 C95.6948947,59.5864739 96.9188089,58.0287648 99.3666374,58.0287648 C101.758833,58.0287648 102.982748,59.5864739 102.982748,61.7005075 L102.982748,75.7198888 Z M149.819651,73.9396499 L149.819651,64.0370711 C149.819651,55.8034662 145.591584,50.1289548 135.021415,50.1289548 L119.277427,50.1289548 L119.277427,87.1801766 L135.021415,87.1801766 C145.591584,87.1801766 149.819651,82.1732547 149.819651,73.9396499 L149.819651,73.9396499 Z M138.136833,74.2178122 C138.136833,77.3888627 136.801654,78.3902471 134.075663,78.3902471 L130.904613,78.3902471 L130.904613,58.8632518 L134.075663,58.8632518 C136.801654,58.8632518 138.136833,59.8646362 138.136833,63.0356867 L138.136833,74.2178122 Z M165.891801,87.1801766 L165.891801,50.1289548 L154.264616,50.1289548 L154.264616,87.1801766 L165.891801,87.1801766 Z M201.936006,87.1801766 L201.936006,50.1289548 L191.477102,50.1289548 L191.477102,67.2637541 L189.029274,63.2582166 L181.018199,50.1289548 L171.059988,50.1289548 L171.059988,87.1801766 L181.574524,87.1801766 L181.574524,70.2679072 L184.133617,74.3290771 L192.311589,87.1801766 L201.936006,87.1801766 Z M145.937106,195.970585 C66.4920359,197.27642 0.920160896,154.904094 0.0093314798,100.38083 C-0.892278711,45.8587139 63.2564819,1.33725657 142.69543,0.0291302061 C222.13396,-1.270161 287.697836,41.0896418 288.633844,95.6266376 C289.519231,150.141149 225.348687,194.664525 145.937106,195.970585 Z M225.907966,61.8117725 L225.907966,64.0927035 L236.366869,64.0927035 L236.366869,61.1998153 C236.366869,54.0232273 230.74799,49.1275704 221.791164,49.1275704 C213.112499,49.1275704 206.380971,53.9119624 206.380971,62.2568322 L206.380971,75.1079317 C206.380971,82.1732547 211.666055,88.2371935 220.678514,88.2371935 C224.962214,88.2371935 228.800854,86.1787922 230.74799,82.7852119 L232.138802,87.1801766 L236.366869,87.1801766 L236.366869,68.5433008 L222.681283,68.5433008 L222.681283,74.1621797 L226.297393,74.1621797 L226.297393,75.9980511 C226.297393,78.0564523 224.628419,79.335999 222.291856,79.335999 C220.289087,79.335999 218.230686,78.1677172 218.230686,75.8311537 L218.230686,61.8117725 C218.230686,59.1970466 219.732762,58.0287648 222.069326,58.0287648 C224.405889,58.0287648 225.907966,59.1970466 225.907966,61.8117725 Z M76.3960617,130.019738 C76.3960617,118.670715 58.9831001,119.060143 58.9831001,114.275751 C58.9831001,112.384247 60.0957494,111.382862 62.209783,111.382862 C64.8245089,111.382862 65.9927907,112.884939 65.9927907,115.110238 L65.9927907,116.445417 L76.0622669,116.445417 L76.0622669,114.442648 C76.0622669,107.48859 70.9997125,102.871095 62.1541506,102.871095 C53.3085886,102.871095 48.0791369,108.044914 48.0791369,114.553913 C48.0791369,125.958568 65.3808336,125.736038 65.3808336,130.631695 C65.3808336,132.467567 64.4907141,133.468951 61.5978259,133.468951 C58.9831001,133.468951 57.4810235,132.189404 57.4810235,129.685943 L57.4810235,128.295132 L47.4115473,128.295132 L47.4115473,129.964106 C47.4115473,137.474489 52.4741016,141.980718 62.209783,141.980718 C71.7229346,141.980718 76.3960617,136.473104 76.3960617,130.019738 Z M107.432731,112.996204 L107.432731,103.87248 L77.9475246,103.87248 L77.9475246,112.996204 L86.8487191,112.996204 L86.8487191,140.923701 L98.4759043,140.923701 L98.4759043,112.996204 L107.432731,112.996204 Z M140.704955,128.740192 L140.704955,116.055989 C140.704955,107.989282 134.195956,102.871095 125.239129,102.871095 C116.22667,102.871095 109.717671,107.989282 109.717671,116.055989 L109.717671,128.740192 C109.717671,136.751267 116.22667,141.980718 125.239129,141.980718 C134.195956,141.980718 140.704955,136.751267 140.704955,128.740192 Z M128.855239,129.463414 C128.855239,131.521815 127.631325,133.079524 125.239129,133.079524 C122.791301,133.079524 121.567387,131.521815 121.567387,129.463414 L121.567387,115.444032 C121.567387,113.329999 122.791301,111.77229 125.239129,111.77229 C127.631325,111.77229 128.855239,113.329999 128.855239,115.444032 L128.855239,129.463414 Z M176.025938,140.923701 L176.025938,103.87248 L165.567034,103.87248 L165.567034,121.007279 L163.119206,117.001741 L155.108131,103.87248 L145.149919,103.87248 L145.149919,140.923701 L155.664455,140.923701 L155.664455,124.011432 L158.223549,128.072602 L166.401521,140.923701 L176.025938,140.923701 Z M207.619545,140.923701 L207.619545,131.466182 L192.82131,131.466182 L192.82131,125.235346 L202.501359,125.235346 L202.501359,118.78198 L192.82131,118.78198 L192.82131,112.718042 L207.619545,112.718042 L207.619545,103.87248 L181.194124,103.87248 L181.194124,140.923701 L207.619545,140.923701 Z M239.167367,130.019738 C239.167367,118.670715 221.754405,119.060143 221.754405,114.275751 C221.754405,112.384247 222.867054,111.382862 224.981088,111.382862 C227.595814,111.382862 228.764096,112.884939 228.764096,115.110238 L228.764096,116.445417 L238.833572,116.445417 L238.833572,114.442648 C238.833572,107.48859 233.771018,102.871095 224.925456,102.871095 C216.079894,102.871095 210.850442,108.044914 210.850442,114.553913 C210.850442,125.958568 228.152139,125.736038 228.152139,130.631695 C228.152139,132.467567 227.262019,133.468951 224.369131,133.468951 C221.754405,133.468951 220.252329,132.189404 220.252329,129.685943 L220.252329,128.295132 L210.182852,128.295132 L210.182852,129.964106 C210.182852,137.474489 215.245407,141.980718 224.981088,141.980718 C234.49424,141.980718 239.167367,136.473104 239.167367,130.019738 Z" id="Combined-Shape"></path>
      </g>
    </g>
  </g>
</svg>
